<svg xmlns="http://www.w3.org/2000/svg" viewBox="0 0 160 180"><defs><linearGradient id="a" x1="0" y1="0" x2="1" y2="1"><stop stop-color="#0b74c9"/><stop offset="1" stop-color="#064b94"/></linearGradient></defs><path fill="url(#a)" d="M80 5c9 30 35 40 35 70 0 13-5 24-14 33 3-31-18-38-21-61-7 18-30 34-30 63 0 27 22 49 50 49 36 0 60-25 60-59C160 58 122 28 80 5Z"/><path fill="#fff" d="M78 72c4 17 18 23 18 40 0 12-8 23-20 23-14 0-24-10-24-24 0-16 15-27 26-39Z"/><path fill="#0b74c9" d="M20 166h120v8H20z"/><text x="80" y="176" fill="#064b94" font-family="Arial" font-size="9" text-anchor="middle">MARKAZI GAS COMPANY</text></svg>